# xmcd
#
# Track frame offsets: 
#        150
#        13246
#        31689
#        48404
#        68041
#        85516
#        97311
#        111479
#        122597
#        135828
#        148311
#        167847
#        180542
#        191753
#        207592
#        219316
#        232924
#
# Disc length: 3305 seconds
#
# Revision: 3
# Processed by: cddbd v1.5.2PL0 Copyright (c) Steve Scherf et al.
# Submitted via: ExactAudioCopyFreeDBPlugin 1.0
#
DISCID=f10ce711
DTITLE=Various Artist - True Country CD3
DYEAR=2006
DGENRE=Country
TTITLE0=Faron Young - It's Four In The Morning
TTITLE1=Don Williams - I Believe In You
TTITLE2=Oak Ridge Boys - Elvira
TTITLE3=Mac Davis - It's Hard To Be Humble
TTITLE4=Jerry Lee Lewis - Middle Age Crazy
TTITLE5=Loretta Lynn - The Pill
TTITLE6=Lee Greenwood - I.O.U.
TTITLE7=Joe Stampley - Soul Song
TTITLE8=Narvel Felts - Lonely Teardrops
TTITLE9=Freddy Fender - Vaya Con Dios
TTITLE10=Marty Robbins - Love Me
TTITLE11=Johnny Rodriguez - Something
TTITLE12=Billy Crash Craddock - Rub It In
TTITLE13=Hoyt Axton - When The Morning Comes
TTITLE14=Lefty Frizzell - I Never Go Around Mirrors
TTITLE15=Reba McEntire - Sweet Dreams
TTITLE16=B. J. Thomas - (Hey Won't You Play) Another Somebody Done Som
TTITLE16=ebody Wrong Song
EXTD=
EXTT0=
EXTT1=
EXTT2=
EXTT3=
EXTT4=
EXTT5=
EXTT6=
EXTT7=
EXTT8=
EXTT9=
EXTT10=
EXTT11=
EXTT12=
EXTT13=
EXTT14=
EXTT15=
EXTT16=
PLAYORDER=
